<svg xmlns="http://www.w3.org/2000/svg" viewBox="0 0 384 512">
  <path fill="#1d1d1f" d="M318.7 268.7c-.2-36.7 16.4-64.4 50-84.8-18.8-26.9-47.2-41.7-84.7-44.6-35.5-2.8-74.3 20.7-88.5 20.7-15 0-49.4-19.7-76.4-19.7C63.3 141.2 4 184.8 4 273.5q0 39.3 14.4 81.2c12.8 36.7 59 126.7 107.2 125.2 25.2-.6 43-17.9 75.8-17.9 31.8 0 48.3 17.9 76.4 17.3 48.6-.7 90.4-84.3 102.8-119.6-34.9-15.8-61.5-39.8-61.9-91zM207.6 105.5c20.8-25.9 30.4-49.6 26.3-81.2-24.4 1.5-49.3 14.1-68.2 32-17.5 16.7-28.9 39.8-25.3 64.3 25.6 2 49.8-13.2 67.2-15.1z"/>
</svg>
